<svg xmlns="http://www.w3.org/2000/svg" viewBox="0 0 30 34" width="96" height="108" role="img" aria-label="bier">
  <path d="M4 9 h17 v20 a3 3 0 0 1 -3 3 h-11 a3 3 0 0 1 -3 -3z" fill="#e9a53a" stroke="#b87308" stroke-width="1.6" stroke-linejoin="round"/>
  <path d="M21 13 h3 a3 3 0 0 1 3 3 v6 a3 3 0 0 1 -3 3 h-3" fill="none" stroke="#b87308" stroke-width="1.8"/>
  <path d="M3 9.5 c-0.4-3.6 2.6-5.8 5.6-4.9 c1.2-2.9 6-3 7.2-0.2 c3-1.2 6.8 0.8 6.2 5.1z" fill="#fff8e7" stroke="#b87308" stroke-width="1.4" stroke-linejoin="round"/>
  <circle cx="10" cy="20" r="1.1" fill="#fff8e7"/>
  <circle cx="14.5" cy="25" r="0.9" fill="#fff8e7"/>
  <circle cx="12.5" cy="15" r="0.8" fill="#fff8e7"/>
</svg>
